<svg width="153" height="39" viewBox="0 0 153 39" fill="none" xmlns="http://www.w3.org/2000/svg">
<path d="M34.4525 31.8066V4.37244H45.8866C48.7515 4.37244 50.9258 5.25494 52.4094 7.01994C53.6373 8.4524 54.2512 10.1918 54.2512 12.2382C54.2512 14.7962 53.5094 16.7786 52.0257 18.1855C50.5421 19.5923 48.3295 20.2958 45.3878 20.2958H37.9058V31.8066H34.4525ZM37.9058 7.36526V17.4948H45.1192C47.0121 17.4948 48.4318 17.0472 49.3782 16.1519C50.3503 15.2566 50.8363 14.0032 50.8363 12.3917C50.8363 10.7546 50.3503 9.51395 49.3782 8.66982C48.4318 7.80012 47.0761 7.36526 45.3111 7.36526H37.9058ZM61.2024 11.9696V15.2694H61.2791C61.9186 14.2206 62.7499 13.3765 63.7731 12.737C64.7963 12.0719 65.9346 11.7394 67.188 11.7394C67.6484 11.7394 68.0705 11.8161 68.4542 11.9696V14.9624H68.3391C67.9554 14.8345 67.495 14.7706 66.9578 14.7706C65.3718 14.7706 64.0161 15.3333 62.8906 16.4588C61.7651 17.5588 61.2024 19.004 61.2024 20.7946V31.8066H58.0944V11.9696H61.2024ZM87.0547 29.351C85.3153 31.3462 83.0003 32.3438 80.1098 32.3438C77.2193 32.3438 74.8916 31.3462 73.1266 29.351C71.3872 27.3558 70.5174 24.8745 70.5174 21.9073C70.5174 18.9401 71.3872 16.4588 73.1266 14.4636C74.8916 12.4684 77.2193 11.4708 80.1098 11.4708C83.0003 11.4708 85.3153 12.4684 87.0547 14.4636C88.7941 16.4588 89.6638 18.9401 89.6638 21.9073C89.6638 24.8745 88.7941 27.3558 87.0547 29.351ZM75.352 27.5476C76.4775 29.0057 78.0635 29.7347 80.1098 29.7347C82.1562 29.7347 83.7293 29.0057 84.8293 27.5476C85.9292 26.064 86.4792 24.1839 86.4792 21.9073C86.4792 19.6051 85.9164 17.725 84.7909 16.267C83.691 14.7834 82.1306 14.0416 80.1098 14.0416C78.0635 14.0416 76.4775 14.7834 75.352 16.267C74.2521 17.7506 73.7021 19.6307 73.7021 21.9073C73.7021 24.1839 74.2521 26.064 75.352 27.5476ZM91.689 37.447C91.203 37.447 90.6275 37.3958 89.9624 37.2935V34.7611H90.0391C90.4228 34.8378 90.7809 34.8762 91.1135 34.8762C92.4692 34.8762 93.1471 34.2367 93.1471 32.9577V11.9696H96.255V33.1112C96.255 34.7995 95.8585 35.9378 95.0655 36.5261C94.2726 37.14 93.1471 37.447 91.689 37.447ZM93.1471 8.20939V4.37244H96.255V8.20939H93.1471ZM109.355 32.3438C106.413 32.3438 104.072 31.359 102.333 29.3894C100.619 27.3941 99.7622 24.9001 99.7622 21.9073C99.7622 18.9656 100.632 16.4972 102.371 14.502C104.136 12.4812 106.4 11.4708 109.163 11.4708C112.079 11.4708 114.33 12.494 115.916 14.5404C117.502 16.5612 118.295 19.2598 118.295 22.6363H102.947C103.075 24.7339 103.689 26.4477 104.789 27.7778C105.914 29.0824 107.436 29.7347 109.355 29.7347C112.322 29.7347 114.151 28.379 114.841 25.6675H117.873C117.412 27.7906 116.44 29.4405 114.957 30.6172C113.473 31.7683 111.606 32.3438 109.355 32.3438ZM113.307 15.6147C112.309 14.4892 110.928 13.9264 109.163 13.9264C107.398 13.9264 105.991 14.5148 104.942 15.6914C103.919 16.8681 103.279 18.4029 103.024 20.2958H114.957C114.854 18.3006 114.304 16.7402 113.307 15.6147ZM130.197 32.3438C127.307 32.3438 124.979 31.3462 123.214 29.351C121.474 27.3558 120.605 24.8745 120.605 21.9073C120.605 18.9401 121.474 16.4588 123.214 14.4636C124.979 12.4684 127.307 11.4708 130.197 11.4708C132.525 11.4708 134.43 12.0975 135.914 13.3509C137.398 14.5787 138.319 16.2542 138.677 18.3773H135.53C135.3 17.0216 134.725 15.96 133.804 15.1926C132.883 14.4253 131.681 14.0416 130.197 14.0416C128.151 14.0416 126.565 14.7834 125.439 16.267C124.339 17.7506 123.789 19.6307 123.789 21.9073C123.789 24.1839 124.339 26.064 125.439 27.5476C126.565 29.0057 128.151 29.7347 130.197 29.7347C131.783 29.7347 133.049 29.3126 133.996 28.4685C134.942 27.5988 135.479 26.3837 135.607 24.8234H138.677C138.472 27.2023 137.628 29.0568 136.144 30.387C134.661 31.6915 132.678 32.3438 130.197 32.3438ZM140.732 14.502V11.9696H143.609V5.71537H146.717V11.9696H150.554V14.502H146.717V27.3941C146.717 28.622 147.382 29.2359 148.712 29.2359C149.275 29.2359 149.825 29.1464 150.362 28.9673H150.477V31.6532C149.633 31.8322 148.802 31.9217 147.983 31.9217C145.067 31.9217 143.609 30.6428 143.609 28.0848V14.502H140.732Z" fill="white"/>
<path fill-rule="evenodd" clip-rule="evenodd" d="M3.80076 4.03711C1.70166 4.03711 0 5.73877 0 7.83787V28.742C0 30.8411 1.70165 32.5428 3.80075 32.5428H24.6348C26.7339 32.5428 28.4355 30.8411 28.4355 28.742V22.5246C27.2233 22.4666 26.1553 22.2645 25.2315 21.9184C24.3067 21.5527 23.4589 20.9464 22.6882 20.0995C21.9175 19.2333 21.3684 18.5596 21.0409 18.0784C20.6941 17.578 20.1642 16.7118 19.4514 15.4799C19.4128 15.4414 19.3936 15.4126 19.3936 15.3933C19.3743 15.3741 19.355 15.3452 19.3358 15.3067C19.3165 15.2682 19.2972 15.2393 19.278 15.2201L19.2202 15.1046C18.3339 13.584 17.5728 12.5061 16.937 11.8709C16.2819 11.2357 15.4053 10.9181 14.3071 10.9181C13.0932 10.9181 12.1106 11.3127 11.3592 12.1019C10.6078 12.8718 10.2321 13.9112 10.2321 15.2201C10.2321 16.5482 10.6463 17.5972 11.4748 18.3671C12.284 19.1178 13.6038 19.4932 15.4342 19.4932V22.0339C13.1029 22.0339 11.311 21.4083 10.0587 20.1572C8.82559 18.9061 8.20904 17.193 8.20904 15.018C8.20904 13.0354 8.77742 11.4378 9.91418 10.2252C11.0509 9.01257 12.5056 8.40625 14.2782 8.40625C14.991 8.40625 15.6461 8.51212 16.2434 8.72385C16.8407 8.93557 17.3224 9.15693 17.6884 9.3879C18.0545 9.61888 18.4784 10.0423 18.9601 10.6583C19.4225 11.2742 19.7404 11.7362 19.9138 12.0441C20.0872 12.3329 20.4147 12.9103 20.8964 13.7765C20.9927 13.9497 21.0698 14.0844 21.1276 14.1807C21.6478 15.1046 22.1006 15.8745 22.4859 16.4905C22.8713 17.0871 23.4107 17.7127 24.1043 18.3671C24.7787 19.0216 25.453 19.4354 26.1274 19.6086V8.81046H28.4355V7.83787C28.4355 5.73877 26.7339 4.03711 24.6348 4.03711H3.80076ZM3.21187 14.6347C2.28705 14.2882 1.21773 14.0861 0.00390625 14.0284V27.7426H2.31595V16.9445C2.9903 17.1177 3.66464 17.5315 4.33899 18.186C5.0326 18.8404 5.57208 19.466 5.95742 20.0627C6.34276 20.6786 6.79554 21.4485 7.31575 22.3724C7.37355 22.4687 7.45062 22.6034 7.54695 22.7766C8.02863 23.6428 8.35617 24.2202 8.52957 24.509C8.70297 24.8169 9.02088 25.2789 9.48329 25.8948C9.96496 26.5108 10.3888 26.9342 10.7549 27.1652C11.121 27.3962 11.6027 27.6175 12.1999 27.8293C12.7972 28.041 13.4523 28.1469 14.1652 28.1469C15.9377 28.1469 17.3924 27.5405 18.5292 26.3279C19.6659 25.1153 20.2343 23.5177 20.2343 21.5351C20.2343 19.3601 19.6177 17.647 18.3847 16.3959C17.1323 15.1448 15.3405 14.5192 13.0092 14.5192V17.0599C14.8395 17.0599 16.1593 17.4353 16.9685 18.186C17.797 18.9559 18.2113 20.0049 18.2113 21.333C18.2113 22.6419 17.8355 23.6813 17.0841 24.4512C16.3327 25.2404 15.3501 25.635 14.1363 25.635C13.0381 25.635 12.1614 25.3174 11.5063 24.6822C10.8705 24.047 10.1095 22.9691 9.22318 21.4485L9.16538 21.333C9.14611 21.3138 9.12685 21.2849 9.10758 21.2464C9.08831 21.2079 9.06905 21.179 9.04978 21.1598C9.04978 21.1405 9.03051 21.1117 8.99198 21.0732C8.2791 19.8413 7.74925 18.9751 7.40245 18.4747C7.07491 17.9935 6.5258 17.3198 5.75512 16.4536C4.98443 15.6067 4.13669 15.0004 3.21187 14.6347Z" fill="white"/>
</svg>
